<?xml version="1.0" encoding="UTF-8"?>
<svg version="1.1" xmlns="http://www.w3.org/2000/svg" width="707" height="353">
<path d="M0 0 C0.98484375 0.00902344 1.9696875 0.01804687 2.984375 0.02734375 C4.10585938 0.04474609 4.10585938 0.04474609 5.25 0.0625 C7.13470109 3.26152675 7.49497641 5.59735865 7.47705078 9.29003906 C7.47689972 10.33081604 7.47674866 11.37159302 7.47659302 12.44390869 C7.46627045 13.56070007 7.45594788 14.67749146 7.4453125 15.828125 C7.4424826 16.97665955 7.43965271 18.12519409 7.43673706 19.30853271 C7.42554263 22.97662781 7.40043904 26.6444787 7.375 30.3125 C7.36496926 32.79947564 7.35584358 35.28645511 7.34765625 37.7734375 C7.32560568 43.86987498 7.29213525 49.96617004 7.25 56.0625 C7.91445633 55.7222731 8.57891266 55.3820462 9.26350403 55.0315094 C10.58870308 54.35957802 10.58870308 54.35957802 11.94067383 53.67407227 C12.81138016 53.23072037 13.68208649 52.78736847 14.57917786 52.33058167 C22.29242721 48.66840217 29.57837262 47.52933683 38.0625 47.625 C39.50979492 47.63853516 39.50979492 47.63853516 40.98632812 47.65234375 C54.2783967 47.97371008 65.41950717 52.47974296 76.25 60.0625 C77.62868281 61.69185241 78.97354698 63.35187928 80.25 65.0625 C80.91 65.3925 81.57 65.7225 82.25 66.0625 C82.25 66.7225 82.25 67.3825 82.25 68.0625 C83.735 68.5575 83.735 68.5575 85.25 69.0625 C94.88289329 78.66907391 99.11776686 94.38583381 99.5 107.625 C99.28646049 123.36868577 93.39809719 137.63731369 82.43359375 148.953125 C81.71300781 149.64921875 80.99242187 150.3453125 80.25 151.0625 C79.66347656 151.63484375 79.07695312 152.2071875 78.47265625 152.796875 C67.01575315 163.2563536 51.85098245 168.7254996 36.36328125 168.375 C17.01616496 166.43300589 2.19649926 157.76580312 -10.2890625 142.96484375 C-19.73848991 130.66037544 -21.90339577 116.52978254 -21.89526367 101.50708008 C-21.89862228 100.59856796 -21.9019809 99.69005585 -21.90544128 98.75401306 C-21.91486573 95.78000487 -21.91688956 92.8060534 -21.91796875 89.83203125 C-21.92118539 87.7517647 -21.92454977 85.67149838 -21.92805481 83.5912323 C-21.93402341 79.24481684 -21.93589686 74.89842121 -21.93530273 70.55200195 C-21.93520081 64.98702003 -21.94889404 59.42216484 -21.96607494 53.85721302 C-21.9771948 49.56694454 -21.97922201 45.27670682 -21.97869301 40.9864254 C-21.97987156 38.93434904 -21.98428633 36.88227184 -21.99202538 34.83020973 C-22.00183229 31.96329447 -21.99894525 29.09665613 -21.99291992 26.22973633 C-21.99853943 25.38647797 -22.00415894 24.5432196 -22.00994873 23.67440796 C-21.98537091 19.06779207 -21.50817516 15.39547299 -19.75 11.0625 C-19.45867187 10.34449219 -19.16734375 9.62648438 -18.8671875 8.88671875 C-17.49621952 6.6481102 -15.98694374 5.42508701 -13.875 3.875 C-13.19695312 3.36582031 -12.51890625 2.85664062 -11.8203125 2.33203125 C-7.93813807 -0.04854741 -4.4905391 -0.0534588 0 0 Z M20.25 80.0625 C20.25 80.7225 20.25 81.3825 20.25 82.0625 C19.59 82.0625 18.93 82.0625 18.25 82.0625 C18.25 82.7225 18.25 83.3825 18.25 84.0625 C17.26 84.3925 16.27 84.7225 15.25 85.0625 C15.25 85.7225 15.25 86.3825 15.25 87.0625 C14.26 87.3925 13.27 87.7225 12.25 88.0625 C6.56592157 95.64127124 5.58670384 105.15234316 6.8125 114.375 C7.93491282 119.77394775 9.78280684 123.79305736 13.25 128.0625 C13.7553125 128.69027344 14.260625 129.31804687 14.78125 129.96484375 C20.78679036 136.66442061 27.5658326 139.13039198 36.41113281 139.63500977 C46.19109408 139.86689019 53.84215065 137.75258025 61.3984375 131.19921875 C63.24866711 129.25140319 64.75992902 127.29553116 66.25 125.0625 C66.68183594 124.43085938 67.11367188 123.79921875 67.55859375 123.1484375 C71.55161545 115.99139515 71.45806096 107.00521853 70.25 99.0625 C67.31198298 89.40135643 61.62270599 83.22291529 53.0625 78.1875 C42.26231586 73.86742634 30.59979873 75.33116344 20.25 80.0625 Z " fill="#FFFFFF" transform="translate(420.75,80.9375)"/>
<path d="M0 0 C4.66561069 3.12429287 8.64986661 6.8091359 12.625 10.7578125 C13.34816406 11.43457031 14.07132812 12.11132812 14.81640625 12.80859375 C24.93773548 23.00674521 28.4784696 37.80957175 28.875 51.8203125 C28.48017268 67.29260793 23.59242335 81.22128748 13 92.5703125 C11.824375 93.653125 11.824375 93.653125 10.625 94.7578125 C9.91085937 95.54285156 9.19671875 96.32789063 8.4609375 97.13671875 C5.1614394 100.18625487 1.89827255 101.96122833 -2.125 103.8828125 C-2.8358374 104.22900635 -3.5466748 104.5752002 -4.27905273 104.93188477 C-19.53082647 112.24180349 -34.02502069 113.75739295 -50.375 108.7578125 C-68.15410887 102.07759938 -79.98835169 90.69667244 -87.9375 73.34765625 C-93.95326977 58.18860003 -93.32518548 43.59579939 -87.59375 28.55078125 C-85.51035211 23.77632774 -82.98745766 19.25994787 -80.375 14.7578125 C-79.715 14.7578125 -79.055 14.7578125 -78.375 14.7578125 C-78.106875 14.1596875 -77.83875 13.5615625 -77.5625 12.9453125 C-76.37582594 10.75933396 -75.27900887 9.34448656 -73.375 7.7578125 C-72.715 7.7578125 -72.055 7.7578125 -71.375 7.7578125 C-71.045 6.7678125 -70.715 5.7778125 -70.375 4.7578125 C-49.41332874 -11.02813746 -22.70028937 -13.13185344 0 0 Z M-54.375 28.7578125 C-55.220625 29.6653125 -56.06625 30.5728125 -56.9375 31.5078125 C-63.24554441 39.45275451 -64.63033617 47.84623391 -63.68847656 57.79492188 C-62.41683785 65.75751942 -57.79495218 72.51610287 -51.4765625 77.35546875 C-50.78304687 77.81824219 -50.08953125 78.28101563 -49.375 78.7578125 C-48.74335938 79.18964844 -48.11171875 79.62148437 -47.4609375 80.06640625 C-39.35257116 84.59018593 -28.71459082 83.94904409 -19.890625 81.98046875 C-11.40583565 78.95480148 -6.59677724 73.50293975 -2.2578125 65.765625 C2.35889737 55.87267528 1.1390241 45.70834973 -2.4375 35.8203125 C-7.1180897 28.42196105 -12.88496244 22.9184253 -21.35546875 20.34765625 C-33.09355693 18.054705 -46.38115845 18.88306706 -54.375 28.7578125 Z " fill="#FFFFFF" transform="translate(359.375,137.2421875)"/>
<path d="M0 0 C0.93328125 -0.00773438 1.8665625 -0.01546875 2.828125 -0.0234375 C12.39728357 0.00329199 19.8691587 1.63342004 28.125 6.5 C28.82004639 6.90041504 29.51509277 7.30083008 30.23120117 7.71337891 C34.94733914 10.48509052 39.07359818 13.41490985 43 17.25 C43.55042969 17.75789063 44.10085938 18.26578125 44.66796875 18.7890625 C46 20.25 46 20.25 46 22.25 C46.66 22.25 47.32 22.25 48 22.25 C48.93537974 23.87825362 49.86798316 25.50814562 50.7890625 27.14453125 C51.58820295 28.53400449 52.41611988 29.9073673 53.2734375 31.26171875 C60.95967744 43.86249392 62.17893639 60.57321922 58.75390625 74.82421875 C55.37655159 85.6912511 50.52300283 95.53871172 42 103.25 C41.2265625 104.04664063 41.2265625 104.04664063 40.4375 104.859375 C29.94524064 115.08028282 14.30517287 120.14823666 -0.125 120.5625 C-1.75177335 120.49119662 -3.37736046 120.38607578 -5 120.25 C-5.8971875 120.19199219 -6.794375 120.13398438 -7.71875 120.07421875 C-19.58326941 118.75062317 -34.2814256 111.97773459 -42.125 102.75 C-42.74375 101.925 -43.3625 101.1 -44 100.25 C-45.175625 99.1671875 -45.175625 99.1671875 -46.375 98.0625 C-56.8922879 86.79397725 -60.72992406 72.04940021 -60.45532227 56.98681641 C-59.88869136 43.49573635 -54.61695696 30.71164276 -46 20.25 C-45.34 20.25 -44.68 20.25 -44 20.25 C-44 19.59 -44 18.93 -44 18.25 C-39.68695332 13.12825706 -33.7946793 9.73510875 -28.0625 6.4375 C-27.07926758 5.86020142 -27.07926758 5.86020142 -26.07617188 5.27124023 C-17.66525191 0.58109373 -9.49906275 -0.07872151 0 0 Z M-20 34.25 C-20 34.91 -20 35.57 -20 36.25 C-20.59554687 36.30929688 -21.19109375 36.36859375 -21.8046875 36.4296875 C-26.3901127 38.14310261 -28.03304734 44.04997756 -30 48.25 C-32.96560314 55.798808 -33.18969056 63.81437973 -30.375 71.4375 C-26.67767175 79.58196433 -22.07035755 85.23814596 -14 89.25 C-13.27167969 89.61480469 -12.54335938 89.97960937 -11.79296875 90.35546875 C-7.96015178 91.5830423 -4.37982057 91.67413668 -0.375 91.6875 C0.81681885 91.69330078 0.81681885 91.69330078 2.03271484 91.69921875 C8.84546495 91.566422 14.16902371 89.84619683 20 86.25 C20 85.59 20 84.93 20 84.25 C20.99 83.92 21.98 83.59 23 83.25 C29.77250567 76.33640046 32.11856147 68.80863767 32.4375 59.3125 C32.17057427 48.06522035 28.06018473 41.31018473 20.3125 33.5625 C10.18553622 25.61475627 -10.48730666 24.73730666 -20 34.25 Z " fill="#FFFFFF" transform="translate(640,128.75)"/>
<path d="M0 0 C6.97720685 4.60283417 10.98024511 10.77582112 12.75 18.9609375 C13.75023821 27.11913042 10.47822541 34.911079 5.62890625 41.3671875 C0.41383891 46.594761 -7.04087521 48.44023458 -13.99609375 50.19140625 C-17.4919148 51.132414 -20.89122529 52.25390444 -24.3125 53.4375 C-26.00826172 54.02337891 -26.00826172 54.02337891 -27.73828125 54.62109375 C-31.15003427 56.06342766 -33.94479331 57.92351753 -37 60 C-37.66 60 -38.32 60 -39 60 C-40.75138558 65.00395881 -42.16051446 69.79838493 -43.1875 75 C-44.94909472 82.18400345 -48.71223833 87.24174049 -54.94921875 91.25390625 C-60.18861727 93.62385731 -65.49282366 93.34434439 -71 92 C-76.4556995 89.27215025 -81.24628728 84.50742543 -84 79 C-85.04630723 65.62098956 -85.04630723 65.62098956 -82.125 61.125 C-81.42375 60.42375 -80.7225 59.7225 -80 59 C-79.34 59 -78.68 59 -78 59 C-78 58.34 -78 57.68 -78 57 C-71.84404367 53.50138708 -66.42574076 51.49756644 -59.421875 50.46875 C-56.49510408 49.90227821 -54.41792808 48.71594896 -52 47 C-51.34 47 -50.68 47 -50 47 C-49.7215625 46.42765625 -49.443125 45.8553125 -49.15625 45.265625 C-48.01847508 43.03620117 -46.77148374 40.90532 -45.5 38.75 C-42.64421457 33.5911618 -41.3326213 28.70169956 -40.6171875 22.890625 C-39.54230523 14.40882675 -37.8725125 8.76785 -31.6875 2.75 C-20.93065457 -4.25445749 -11.82213711 -6.13914837 0 0 Z " fill="#FFFFFF" transform="translate(202,180)"/>
<path d="M0 0 C5.34536278 5.20089351 6.58688376 8.92940312 6.8125 16.3125 C6.62084517 21.80079751 6.38748157 25.27440823 2.3125 29.25 C-3.68647276 34.56337587 -9.62236181 36.2326941 -17.453125 37.51171875 C-20.74725418 38.26363954 -22.87136506 39.43748762 -25.6875 41.25 C-26.3475 41.25 -27.0075 41.25 -27.6875 41.25 C-27.9659375 41.81074219 -28.244375 42.37148437 -28.53125 42.94921875 C-29.31048846 44.49979798 -30.10247057 46.04403023 -30.90625 47.58203125 C-34.53607449 54.60928292 -36.5145183 60.89461578 -37.5625 68.75 C-38.33839249 74.17499021 -39.56474124 77.77404577 -42.6875 82.25 C-43.3475 82.25 -44.0075 82.25 -44.6875 82.25 C-44.6875 82.91 -44.6875 83.57 -44.6875 84.25 C-46.55078125 85.72265625 -46.55078125 85.72265625 -49 87.3125 C-49.80050781 87.83972656 -50.60101563 88.36695313 -51.42578125 88.91015625 C-57.3158683 92.39944789 -64.06733693 91.98557367 -70.6875 91.25 C-76.83899535 89.03069538 -82.19743512 85.92135543 -85.6875 80.25 C-86.5228125 79.0125 -86.5228125 79.0125 -87.375 77.75 C-90.49434764 71.80838544 -90.82325607 63.65105476 -89.15625 57.19140625 C-86.27758711 50.16684301 -82.26362511 45.05388382 -75.6875 41.25 C-72.84461977 40.1619675 -69.95995511 39.44688879 -67 38.75 C-50.73078354 35.02023841 -50.73078354 35.02023841 -38.29296875 25.09375 C-36.11087823 21.01883744 -34.53846795 17.17137506 -33.6875 12.625 C-32.48233174 6.32018454 -29.63265736 1.79818647 -24.625 -2.1875 C-15.96722723 -6.79269828 -8.03515427 -5.23219348 0 0 Z " fill="#FFFFFF" transform="translate(96.6875,85.75)"/>
<path d="M0 0 C0.88042969 -0.00257812 1.76085937 -0.00515625 2.66796875 -0.0078125 C4.8125 0.125 4.8125 0.125 5.8125 1.125 C5.91051653 2.6662084 5.93881846 4.21190368 5.93948364 5.75622559 C5.94230347 6.75743942 5.94512329 7.75865326 5.94802856 8.79020691 C5.94600433 9.89777847 5.9439801 11.00535004 5.94189453 12.14648438 C5.94364685 13.30569901 5.94539917 14.46491364 5.94720459 15.65925598 C5.95162595 19.51243563 5.94868411 23.36556983 5.9453125 27.21875 C5.94598546 29.88293516 5.9469537 32.54711891 5.94821167 35.21130371 C5.95003322 40.80347186 5.94762745 46.39562682 5.94287109 51.98779297 C5.9374285 58.46172502 5.93919117 64.93562558 5.9446975 71.40955687 C5.94922906 76.95859405 5.94987897 82.50762174 5.94725883 88.05666018 C5.94569629 91.37495308 5.94589174 94.69322786 5.94879532 98.01152039 C5.95132017 101.70887414 5.94748361 105.40616647 5.94189453 109.10351562 C5.94391876 110.21108719 5.94594299 111.31865875 5.94802856 112.45979309 C5.94379883 113.96161385 5.94379883 113.96161385 5.93948364 115.49377441 C5.93910662 116.36910072 5.93872959 117.24442703 5.93834114 118.14627838 C5.8125 120.125 5.8125 120.125 4.8125 121.125 C0.67287717 121.37801239 -3.47855996 121.31022549 -7.625 121.3125 C-8.79611328 121.32474609 -9.96722656 121.33699219 -11.17382812 121.34960938 C-12.29080078 121.35154297 -13.40777344 121.35347656 -14.55859375 121.35546875 C-15.58911865 121.35957764 -16.61964355 121.36368652 -17.68139648 121.36791992 C-20.1875 121.125 -20.1875 121.125 -22.1875 119.125 C-22.44476891 117.29266167 -22.44476891 117.29266167 -22.45492554 115.02804565 C-22.46345551 114.17019974 -22.47198547 113.31235382 -22.48077393 112.42851257 C-22.47986755 111.48514542 -22.47896118 110.54177826 -22.47802734 109.56982422 C-22.48474457 108.57776474 -22.49146179 107.58570526 -22.49838257 106.56358337 C-22.51744966 103.26890104 -22.5212918 99.97442165 -22.5234375 96.6796875 C-22.52986168 94.39242468 -22.53658975 92.10516269 -22.54360962 89.81790161 C-22.55560581 85.0143239 -22.55928827 80.21081821 -22.55810547 75.40722656 C-22.55790268 69.2603009 -22.58515357 63.11383964 -22.61964989 56.96702385 C-22.64192645 52.23829034 -22.64594269 47.50966821 -22.64488602 42.7808876 C-22.6472428 40.51553885 -22.65607063 38.25018707 -22.67155075 35.98488998 C-22.69121595 32.80844807 -22.68536892 29.63300201 -22.67333984 26.45654297 C-22.68457886 25.5253212 -22.69581787 24.59409943 -22.70739746 23.63465881 C-22.63890057 16.49211012 -20.85497646 11.30876223 -16.25 5.8125 C-10.99126702 1.50990029 -6.72944836 -0.0198802 0 0 Z " fill="#FFFFFF" transform="translate(558.1875,127.875)"/>
<path d="M0 0 C5.71443378 5.66375145 8.29933375 9.9852671 8.5 18.1875 C8.53003711 25.28398077 6.8861243 29.83400223 2 35 C-2.79039985 39.79039985 -8.70889711 42.09695989 -15.4375 42.4375 C-22.35296239 42.18668012 -29.19575868 38.94150536 -34 34 C-38.51153883 26.46037748 -40.08849521 19.59077867 -38.64453125 10.84765625 C-36.635077 4.03708983 -30.9476943 -0.79307865 -24.8828125 -4.18359375 C-16.12964488 -7.9790544 -7.12761489 -5.86715247 0 0 Z " fill="#FFFFFF" transform="translate(200,121)"/>
<path d="M0 0 C4.85216419 3.26218949 8.15677352 7.32030724 10.51171875 12.64453125 C12.63216051 26.78080964 12.63216051 26.78080964 8.38671875 33.39453125 C5.93280078 36.57830304 3.46623182 39.18972275 0.07421875 41.39453125 C-0.77140625 41.97203125 -1.61703125 42.54953125 -2.48828125 43.14453125 C-8.2381715 45.23540043 -14.41336524 45.46728885 -20.3046875 43.66796875 C-26.57034019 40.74320488 -30.86753263 35.90215437 -34.92578125 30.39453125 C-36.97410446 24.24956163 -37.27809934 16.68408011 -34.796875 10.6484375 C-31.27891927 5.20157654 -27.10285386 0.94612485 -21.23828125 -1.91796875 C-13.82125725 -3.45735109 -6.85366329 -3.48220236 0 0 Z " fill="#FFFFFF" transform="translate(48.92578125,193.60546875)"/>
<path d="M0 0 C3.43554167 3.24891965 5.77052333 6.4360395 6.203125 11.26953125 C6.32516834 17.89038223 5.50456318 22.09147501 1.0625 27.25 C-3.87549832 31.43981676 -8.38904177 31.54178928 -14.7265625 31.44921875 C-19.64961496 30.77362086 -22.74947904 28.69086247 -26 25 C-29.47727024 20.17091042 -29.73918305 16.14646148 -29.61328125 10.30859375 C-28.57215267 4.69180451 -25.40771939 1.43978101 -21 -2 C-13.66536741 -5.74215948 -6.59328093 -4.51992215 0 0 Z " fill="#FFFFFF" transform="translate(562,85)"/>
<path d="M0 0 C4.20416625 2.96202622 6.94567271 6.14455985 8.38671875 11.1484375 C9.23540714 16.49608693 8.60281573 20.21252395 5.75 24.9375 C2.52324466 28.80088545 -0.66821916 31.19561212 -5.6875 32.0625 C-10.64742948 32.28219023 -14.31103751 30.91532132 -18.25 27.9375 C-22.44791475 23.90625184 -23.99437294 19.7712301 -24.31640625 14.00390625 C-24.13593886 8.38818559 -21.02128501 4.88419362 -17.25 0.9375 C-12.04415224 -2.24385141 -5.62526965 -1.83903046 0 0 Z " fill="#FFFFFF" transform="translate(89.25,239.0625)"/>
<path d="M0 0 C5.43584759 1.88590631 8.76811108 5.3679768 12 10 C13.44115869 14.32347606 13.50590469 18.2293336 12.25 22.625 C9.49412602 27.86116055 6.83729099 30.71760594 1.21875 32.5625 C-3.73480405 33.53925714 -8.20538437 32.7577266 -12.8125 30.8125 C-16.73698439 27.56078436 -19.03646872 24.09368771 -19.875 19.0625 C-20.22842771 14.98630045 -19.35714756 11.83194606 -18 8 C-17.34 8 -16.68 8 -16 8 C-15.773125 7.401875 -15.54625 6.80375 -15.3125 6.1875 C-11.94005386 0.56675643 -6.0481433 -0.40320955 0 0 Z " fill="#FFFFFF" transform="translate(143,83)"/>
</svg>
